solid Untitled
facet normal 0.9999999999999999 -1.4969443273987265e-08 2.2205971178778e-16
  outer loop
    vertex -103.55151097205831 15.947595143464142 1.2522351199306668e-07
    vertex -103.55151072057166 32.74759577851272 1.7000001239465237
    vertex -103.55151097205831 15.947595143467122 1.7000001240004936
  endloop
endfacet
facet normal 0.9999999999999999 -1.4969443273987265e-08 2.2205971178778e-16
  outer loop
    vertex -103.55151072057166 32.74759577851272 1.7000001239465237
    vertex -103.55151097205831 15.947595143464142 1.2522351199306668e-07
    vertex -103.55151072057166 32.74759577850973 1.251695434745237e-07
  endloop
endfacet
facet normal -2.2203269099237012e-16 3.212037661900006e-12 1.0
  outer loop
    vertex -147.1415875254324 15.947595795949761 5.000000125223521
    vertex -106.55151072057164 32.74759582351681 5.000000125169566
    vertex -147.1415872739457 32.74759643099539 5.000000125169553
  endloop
endfacet
facet normal -2.2203269099237012e-16 3.212037661900006e-12 1.0
  outer loop
    vertex -106.55151072057164 32.74759582351681 5.000000125169566
    vertex -147.1415875254324 15.947595795949761 5.000000125223521
    vertex -106.55151097205831 15.947595188471224 5.000000125223537
  endloop
endfacet
facet normal -0.9999999999999999 1.496944251715511e-08 -2.220587095242408e-16
  outer loop
    vertex -147.1415872739457 32.74759643099539 5.000000125169553
    vertex -147.1415875254324 15.94759579601519 1.252234957782594e-07
    vertex -147.1415875254324 15.947595795949761 5.000000125223521
  endloop
endfacet
facet normal -0.9999999999999999 1.496944251715511e-08 -2.220587095242408e-16
  outer loop
    vertex -147.1415875254324 15.94759579601519 1.252234957782594e-07
    vertex -147.1415872739457 32.74759643099539 5.000000125169553
    vertex -147.1415872739457 32.74759643106081 1.2516952584973318e-07
  endloop
endfacet
facet normal 2.2314227315312693e-16 -3.212037905028257e-12 -1.0
  outer loop
    vertex -103.55151072057166 32.74759577850973 1.251695434745237e-07
    vertex -147.1415875254324 15.94759579601519 1.252234957782594e-07
    vertex -147.1415872739457 32.74759643106081 1.2516952584973318e-07
  endloop
endfacet
facet normal 2.2314227315312693e-16 -3.212037905028257e-12 -1.0
  outer loop
    vertex -147.1415875254324 15.94759579601519 1.252234957782594e-07
    vertex -103.55151072057166 32.74759577850973 1.251695434745237e-07
    vertex -103.55151097205831 15.947595143464142 1.2522351199306668e-07
  endloop
endfacet
facet normal -1.4969443273987255e-08 -0.9999999999999999 3.212177807855393e-12
  outer loop
    vertex -147.1415875254324 15.947595795949761 5.000000125223521
    vertex -106.55151097205831 15.947595188394601 1.700000124000493
    vertex -106.55151097205831 15.947595188471224 5.000000125223537
  endloop
endfacet
facet normal -1.4969443273987255e-08 -0.9999999999999999 3.212177807855393e-12
  outer loop
    vertex -106.55151097205831 15.947595188394601 1.700000124000493
    vertex -103.55151097205831 15.947595143464142 1.2522351199306668e-07
    vertex -103.55151097205831 15.947595143467122 1.7000001240004936
  endloop
endfacet
facet normal -1.4969443273987255e-08 -0.9999999999999999 3.212177807855393e-12
  outer loop
    vertex -103.55151097205831 15.947595143464142 1.2522351199306668e-07
    vertex -106.55151097205831 15.947595188394601 1.700000124000493
    vertex -147.1415875254324 15.94759579601519 1.252234957782594e-07
  endloop
endfacet
facet normal -1.4969443273987255e-08 -0.9999999999999999 3.212177807855393e-12
  outer loop
    vertex -147.1415875254324 15.94759579601519 1.252234957782594e-07
    vertex -106.55151097205831 15.947595188394601 1.700000124000493
    vertex -147.1415875254324 15.947595795949761 5.000000125223521
  endloop
endfacet
facet normal -2.2311309214621494e-16 3.2120376619000222e-12 1.0
  outer loop
    vertex -106.55151097205831 15.947595188394601 1.700000124000493
    vertex -103.55151072057166 32.74759577851272 1.7000001239465237
    vertex -106.55151072057164 32.74759582344019 1.7000001239465259
  endloop
endfacet
facet normal -2.2311309214621494e-16 3.2120376619000222e-12 1.0
  outer loop
    vertex -103.55151072057166 32.74759577851272 1.7000001239465237
    vertex -106.55151097205831 15.947595188394601 1.700000124000493
    vertex -103.55151097205831 15.947595143467122 1.7000001240004936
  endloop
endfacet
facet normal 0.9999999999999999 -1.4969442517155108e-08 1.931131756459365e-15
  outer loop
    vertex -106.55151097205831 15.947595188394601 1.700000124000493
    vertex -106.55151072057164 32.74759582351681 5.000000125169566
    vertex -106.55151097205831 15.947595188471224 5.000000125223537
  endloop
endfacet
facet normal 0.9999999999999999 -1.4969442517155108e-08 1.931131756459365e-15
  outer loop
    vertex -106.55151072057164 32.74759582351681 5.000000125169566
    vertex -106.55151097205831 15.947595188394601 1.700000124000493
    vertex -106.55151072057164 32.74759582344019 1.7000001239465259
  endloop
endfacet
facet normal 1.4974859346910137e-08 0.9999999999999999 7.704392041347535e-12
  outer loop
    vertex -147.1415872739457 32.74759643106081 1.2516952584973318e-07
    vertex -103.55151072057166 32.74759577851272 1.7000001239465237
    vertex -103.55151072057166 32.74759577850973 1.251695434745237e-07
  endloop
endfacet
facet normal 1.4974859346910137e-08 0.9999999999999999 7.704392041347535e-12
  outer loop
    vertex -103.55151072057166 32.74759577851272 1.7000001239465237
    vertex -147.1415872739457 32.74759643106081 1.2516952584973318e-07
    vertex -106.55151072057164 32.74759582344019 1.7000001239465259
  endloop
endfacet
facet normal 1.4974859346910137e-08 0.9999999999999999 7.704392041347535e-12
  outer loop
    vertex -106.55151072057164 32.74759582344019 1.7000001239465259
    vertex -147.1415872739457 32.74759643106081 1.2516952584973318e-07
    vertex -106.55151072057164 32.74759582351681 5.000000125169566
  endloop
endfacet
facet normal 1.4974859346910137e-08 0.9999999999999999 7.704392041347535e-12
  outer loop
    vertex -106.55151072057164 32.74759582351681 5.000000125169566
    vertex -147.1415872739457 32.74759643106081 1.2516952584973318e-07
    vertex -147.1415872739457 32.74759643099539 5.000000125169553
  endloop
endfacet
endsolid Untitled
