solid Untitled
facet normal 1.4536927222815956e-11 1.0957745319002236e-11 -1.0
  outer loop
    vertex 20.31063752159899 76.71844934359859 5.1112483903306405
    vertex 21.91063752101768 74.4184493435986 5.111248390328697
    vertex 20.310637521951094 74.4184493435986 5.111248390282179
  endloop
endfacet
facet normal 1.4536927222815956e-11 1.0957745319002236e-11 -1.0
  outer loop
    vertex 21.91063752101768 74.4184493435986 5.111248390328697
    vertex 20.31063752159899 76.71844934359859 5.1112483903306405
    vertex 21.91063752101768 76.71844934359859 5.1112483903306405
  endloop
endfacet
facet normal -7.409159024956233e-11 -1.1343278799142193e-12 1.0
  outer loop
    vertex 20.210637521680027 74.51844934340846 9.111248390275218
    vertex -62.179438733965334 73.51844934440636 9.11124838420664
    vertex 20.21063752183303 73.51844934439113 9.111248390320553
  endloop
endfacet
facet normal -7.409159024956233e-11 -1.1343278799142193e-12 1.0
  outer loop
    vertex -62.179438733965334 73.51844934440636 9.11124838420664
    vertex 20.210637521680027 74.51844934340846 9.111248390275218
    vertex -62.179438733943535 107.31844934440639 9.111248384235157
  endloop
endfacet
facet normal -7.409159024956233e-11 -1.1343278799142193e-12 1.0
  outer loop
    vertex -62.179438733943535 107.31844934440639 9.111248384235157
    vertex 20.210637521680027 74.51844934340846 9.111248390275218
    vertex 20.310637521680025 74.51844934342377 9.111248390282617
  endloop
endfacet
facet normal -7.409159024956233e-11 -1.1343278799142193e-12 1.0
  outer loop
    vertex -62.179438733943535 107.31844934440639 9.111248384235157
    vertex 20.310637521680025 74.51844934342377 9.111248390282617
    vertex 20.210637521327193 76.61844934342548 9.111248390322789
  endloop
endfacet
facet normal -7.409159024956233e-11 -1.1343278799142193e-12 1.0
  outer loop
    vertex 20.210637521327193 76.61844934342548 9.111248390322789
    vertex 20.310637521680025 74.51844934342377 9.111248390282617
    vertex 20.31063752132719 76.61844934342376 9.11124839033019
  endloop
endfacet
facet normal -7.409159024956233e-11 -1.1343278799142193e-12 1.0
  outer loop
    vertex -62.179438733943535 107.31844934440639 9.111248384235157
    vertex 20.210637521327193 76.61844934342548 9.111248390322789
    vertex 20.21063752185482 107.31844934440814 9.11124839034907
  endloop
endfacet
facet normal -7.2614136939821475e-12 -1.0957745318445345e-11 1.0
  outer loop
    vertex 21.810637520864987 76.61844934340411 9.111248390317105
    vertex 20.310637521680025 74.51844934342377 9.111248390282617
    vertex 21.81063752086572 74.51844934340411 9.111248390316051
  endloop
endfacet
facet normal -7.2614136939821475e-12 -1.0957745318445345e-11 1.0
  outer loop
    vertex 20.310637521680025 74.51844934342377 9.111248390282617
    vertex 21.810637520864987 76.61844934340411 9.111248390317105
    vertex 20.31063752132719 76.61844934342376 9.11124839033019
  endloop
endfacet
facet normal -7.420665371372322e-11 -1.134327879914233e-12 1.0
  outer loop
    vertex 20.310637522003002 107.41844934440871 7.1112483903565815
    vertex 20.210637522003005 107.31844934441042 7.111248390349075
    vertex 20.310637522003002 107.3184493444087 7.111248390356474
  endloop
endfacet
facet normal -7.420665371372322e-11 -1.134327879914233e-12 1.0
  outer loop
    vertex 20.210637522003005 107.31844934441042 7.111248390349075
    vertex 20.310637522003002 107.41844934440871 7.1112483903565815
    vertex -62.17943873379536 107.41844934440864 7.111248384235269
  endloop
endfacet
facet normal -7.420665371372322e-11 -1.134327879914233e-12 1.0
  outer loop
    vertex -62.17943873379536 107.41844934440864 7.111248384235269
    vertex -62.17943873379536 107.31844934440863 7.111248384235162
    vertex 20.210637522003005 107.31844934441042 7.111248390349075
  endloop
endfacet
facet normal -2.1462537292029208e-23 1.0 1.1343278799142328e-12
  outer loop
    vertex 20.21063752185482 107.31844934440814 9.11124839034907
    vertex -62.17943873379536 107.31844934440863 7.111248384235162
    vertex -62.179438733943535 107.31844934440639 9.111248384235157
  endloop
endfacet
facet normal -2.1462537292029208e-23 1.0 1.1343278799142328e-12
  outer loop
    vertex -62.17943873379536 107.31844934440863 7.111248384235162
    vertex 20.21063752185482 107.31844934440814 9.11124839034907
    vertex 20.210637522003005 107.31844934441042 7.111248390349075
  endloop
endfacet
facet normal 3.414415366812921e-17 -1.0 -1.1343278799142304e-12
  outer loop
    vertex -62.179438733817165 73.51844934440865 7.111248384206643
    vertex 20.21063752183303 73.51844934439113 9.111248390320553
    vertex -62.179438733965334 73.51844934440636 9.11124838420664
  endloop
endfacet
facet normal 3.414415366812921e-17 -1.0 -1.1343278799142304e-12
  outer loop
    vertex 20.21063752183303 73.51844934439113 9.111248390320553
    vertex -62.179438733817165 73.51844934440865 7.111248384206643
    vertex 20.210637521981212 73.51844934439339 7.111248390320556
  endloop
endfacet
facet normal -7.420639855811467e-11 -1.1343278799142328e-12 1.0
  outer loop
    vertex 20.31063752198121 73.51844934440871 7.111248390327956
    vertex 20.210637521981212 73.51844934439339 7.111248390320556
    vertex 20.31063752198121 73.4184493444087 7.111248390327849
  endloop
endfacet
facet normal -7.420639855811467e-11 -1.1343278799142328e-12 1.0
  outer loop
    vertex 20.31063752198121 73.4184493444087 7.111248390327849
    vertex -62.279438733817166 73.51844934440871 7.111248384199244
    vertex -62.279438733817166 73.4184493444087 7.111248384199136
  endloop
endfacet
facet normal -7.420639855811467e-11 -1.1343278799142328e-12 1.0
  outer loop
    vertex -62.279438733817166 73.51844934440871 7.111248384199244
    vertex 20.31063752198121 73.4184493444087 7.111248390327849
    vertex -62.179438733817165 73.51844934440865 7.111248384206643
  endloop
endfacet
facet normal -7.420639855811467e-11 -1.1343278799142328e-12 1.0
  outer loop
    vertex -62.179438733817165 73.51844934440865 7.111248384206643
    vertex 20.31063752198121 73.4184493444087 7.111248390327849
    vertex 20.210637521981212 73.51844934439339 7.111248390320556
  endloop
endfacet
facet normal -7.409179936245863e-11 -8.443630495808268e-13 1.0
  outer loop
    vertex 20.310637521476018 76.71844934342603 7.111248390330638
    vertex 20.210637521475366 76.61844934342774 7.1112483903227925
    vertex 20.310637521475364 76.61844934342602 7.111248390330192
  endloop
endfacet
facet normal -7.409179936245863e-11 -8.443630495808268e-13 1.0
  outer loop
    vertex 20.210637521475366 76.61844934342774 7.1112483903227925
    vertex 20.310637521476018 76.71844934342603 7.111248390330638
    vertex 20.210637522003005 107.31844934441042 7.111248390349075
  endloop
endfacet
facet normal -7.409179936245863e-11 -8.443630495808268e-13 1.0
  outer loop
    vertex 20.210637522003005 107.31844934441042 7.111248390349075
    vertex 20.310637521476018 76.71844934342603 7.111248390330638
    vertex 20.310637522003002 107.3184493444087 7.111248390356474
  endloop
endfacet
facet normal 1.0 -1.7165604442269543e-11 7.409179936244414e-11
  outer loop
    vertex 20.210637521327193 76.61844934342548 9.111248390322789
    vertex 20.210637522003005 107.31844934441042 7.111248390349075
    vertex 20.21063752185482 107.31844934440814 9.11124839034907
  endloop
endfacet
facet normal 1.0 -1.7165604442269543e-11 7.409179936244414e-11
  outer loop
    vertex 20.210637522003005 107.31844934441042 7.111248390349075
    vertex 20.210637521327193 76.61844934342548 9.111248390322789
    vertex 20.210637521475366 76.61844934342774 7.1112483903227925
  endloop
endfacet
facet normal 1.0 1.530903405583824e-10 7.409179936263727e-11
  outer loop
    vertex 20.210637521981212 73.51844934439339 7.111248390320556
    vertex 20.210637521680027 74.51844934340846 9.111248390275218
    vertex 20.21063752183303 73.51844934439113 9.111248390320553
  endloop
endfacet
facet normal 1.0 1.530903405583824e-10 7.409179936263727e-11
  outer loop
    vertex 20.210637521680027 74.51844934340846 9.111248390275218
    vertex 20.210637521981212 73.51844934439339 7.111248390320556
    vertex 20.21063752182821 74.51844934341072 7.111248390275221
  endloop
endfacet
facet normal -7.409179937042448e-11 5.0866818444608215e-11 1.0
  outer loop
    vertex 20.31063752198121 73.51844934440871 7.111248390327956
    vertex 20.21063752182821 74.51844934341072 7.111248390275221
    vertex 20.210637521981212 73.51844934439339 7.111248390320556
  endloop
endfacet
facet normal -7.409179937042448e-11 5.0866818444608215e-11 1.0
  outer loop
    vertex 20.21063752182821 74.51844934341072 7.111248390275221
    vertex 20.31063752198121 73.51844934440871 7.111248390327956
    vertex 20.31063752182812 74.41844934342603 7.111248390282175
  endloop
endfacet
facet normal -7.409179937042448e-11 5.0866818444608215e-11 1.0
  outer loop
    vertex 20.21063752182821 74.51844934341072 7.111248390275221
    vertex 20.31063752182812 74.41844934342603 7.111248390282175
    vertex 20.31063752182821 74.51844934342603 7.111248390282621
  endloop
endfacet
facet normal 1.0 -1.2286689464322289e-23 1.4539747184101615e-11
  outer loop
    vertex 21.810637520894797 74.51844934342603 7.111248390327695
    vertex 21.810637520864987 76.61844934340411 9.111248390317105
    vertex 21.81063752086572 74.51844934340411 9.111248390316051
  endloop
endfacet
facet normal 1.0 -1.2286689464322289e-23 1.4539747184101615e-11
  outer loop
    vertex 21.810637520864987 76.61844934340411 9.111248390317105
    vertex 21.810637520894797 74.51844934342603 7.111248390327695
    vertex 21.810637520894065 76.61844934342602 7.111248390328749
  endloop
endfacet
facet normal -7.409159024956215e-11 -8.444348181324231e-13 1.0
  outer loop
    vertex -62.17943873379536 107.31844934440863 7.111248384235162
    vertex -62.279438733817166 73.51844934440871 7.111248384199244
    vertex -62.179438733817165 73.51844934440865 7.111248384206643
  endloop
endfacet
facet normal -7.409159024956215e-11 -8.444348181324231e-13 1.0
  outer loop
    vertex -62.279438733817166 73.51844934440871 7.111248384199244
    vertex -62.17943873379536 107.31844934440863 7.111248384235162
    vertex -62.27943873379536 107.41844934440871 7.11124838422787
  endloop
endfacet
facet normal -7.409159024956215e-11 -8.444348181324231e-13 1.0
  outer loop
    vertex -62.27943873379536 107.41844934440871 7.11124838422787
    vertex -62.17943873379536 107.31844934440863 7.111248384235162
    vertex -62.17943873379536 107.41844934440864 7.111248384235269
  endloop
endfacet
facet normal -1.0 6.41293554270272e-13 -7.409159024956159e-11
  outer loop
    vertex -62.179438733943535 107.31844934440639 9.111248384235157
    vertex -62.179438733817165 73.51844934440865 7.111248384206643
    vertex -62.179438733965334 73.51844934440636 9.11124838420664
  endloop
endfacet
facet normal -1.0 6.41293554270272e-13 -7.409159024956159e-11
  outer loop
    vertex -62.179438733817165 73.51844934440865 7.111248384206643
    vertex -62.179438733943535 107.31844934440639 9.111248384235157
    vertex -62.17943873379536 107.31844934440863 7.111248384235162
  endloop
endfacet
facet normal -1.4539747184101615e-11 -8.451002969960182e-13 1.0
  outer loop
    vertex 21.91063752089471 76.71844934342603 7.111248390330638
    vertex 21.81063752089471 74.41844934342603 7.111248390327249
    vertex 21.91063752089471 74.41844934342603 7.111248390328694
  endloop
endfacet
facet normal -1.4539747184101615e-11 -8.451002969960182e-13 1.0
  outer loop
    vertex 21.81063752089471 74.41844934342603 7.111248390327249
    vertex 21.91063752089471 76.71844934342603 7.111248390330638
    vertex 21.810637520894797 74.51844934342603 7.111248390327695
  endloop
endfacet
facet normal -1.4539747184101615e-11 -8.451002969960182e-13 1.0
  outer loop
    vertex 21.810637520894797 74.51844934342603 7.111248390327695
    vertex 21.91063752089471 76.71844934342603 7.111248390330638
    vertex 21.810637520894065 76.61844934342602 7.111248390328749
  endloop
endfacet
facet normal -1.4539747184101615e-11 -8.451002969960182e-13 1.0
  outer loop
    vertex 21.810637520894065 76.61844934342602 7.111248390328749
    vertex 21.91063752089471 76.71844934342603 7.111248390330638
    vertex 21.81063752089471 76.71844934342603 7.111248390329194
  endloop
endfacet
facet normal 6.503121608817583e-12 1.0 4.408597942457334e-12
  outer loop
    vertex 20.31063752132719 76.61844934342376 9.11124839033019
    vertex 20.210637521475366 76.61844934342774 7.1112483903227925
    vertex 20.210637521327193 76.61844934342548 9.111248390322789
  endloop
endfacet
facet normal 6.503121608817583e-12 1.0 4.408597942457334e-12
  outer loop
    vertex 20.210637521475366 76.61844934342774 7.1112483903227925
    vertex 20.31063752132719 76.61844934342376 9.11124839033019
    vertex 20.310637521475364 76.61844934342602 7.111248390330192
  endloop
endfacet
facet normal 6.503121608817583e-12 1.0 4.408597942457334e-12
  outer loop
    vertex 20.310637521475364 76.61844934342602 7.111248390330192
    vertex 20.31063752132719 76.61844934342376 9.11124839033019
    vertex 21.810637520864987 76.61844934340411 9.111248390317105
  endloop
endfacet
facet normal 6.503121608817583e-12 1.0 4.408597942457334e-12
  outer loop
    vertex 20.310637521475364 76.61844934342602 7.111248390330192
    vertex 21.810637520864987 76.61844934340411 9.111248390317105
    vertex 21.810637520894065 76.61844934342602 7.111248390328749
  endloop
endfacet
facet normal 9.625485597493756e-13 -4.408597942463595e-12 1.0
  outer loop
    vertex 21.81063752089471 76.71844934342603 7.111248390329194
    vertex 20.310637521475364 76.61844934342602 7.111248390330192
    vertex 21.810637520894065 76.61844934342602 7.111248390328749
  endloop
endfacet
facet normal 9.625485597493756e-13 -4.408597942463595e-12 1.0
  outer loop
    vertex 20.310637521475364 76.61844934342602 7.111248390330192
    vertex 21.81063752089471 76.71844934342603 7.111248390329194
    vertex 20.310637521476018 76.71844934342603 7.111248390330638
  endloop
endfacet
facet normal -6.148690638655082e-11 -8.628551166919247e-11 1.0
  outer loop
    vertex 24.310637521981214 71.4184493444087 7.111248384150206
    vertex 20.31063752198121 73.4184493444087 7.111248390327849
    vertex -66.27943873381716 71.4184493444087 7.111248383947845
  endloop
endfacet
facet normal -6.148690638655082e-11 -8.628551166919247e-11 1.0
  outer loop
    vertex 20.31063752198121 73.4184493444087 7.111248390327849
    vertex 24.310637521981214 71.4184493444087 7.111248384150206
    vertex 21.91063752089471 74.41844934342603 7.111248390328694
  endloop
endfacet
facet normal -6.148690638655082e-11 -8.628551166919247e-11 1.0
  outer loop
    vertex 21.91063752089471 74.41844934342603 7.111248390328694
    vertex 24.310637521981214 71.4184493444087 7.111248384150206
    vertex 24.31063752070464 108.41844934432119 7.111248390295501
  endloop
endfacet
facet normal -6.148690638655082e-11 -8.628551166919247e-11 1.0
  outer loop
    vertex -66.27943873381716 71.4184493444087 7.111248383947845
    vertex 20.31063752198121 73.4184493444087 7.111248390327849
    vertex -62.279438733817166 73.4184493444087 7.111248384199136
  endloop
endfacet
facet normal -6.148690638655082e-11 -8.628551166919247e-11 1.0
  outer loop
    vertex 20.31063752198121 73.4184493444087 7.111248390327849
    vertex 21.91063752089471 74.41844934342603 7.111248390328694
    vertex 20.31063752198121 73.51844934440871 7.111248390327956
  endloop
endfacet
facet normal -6.148690638655082e-11 -8.628551166919247e-11 1.0
  outer loop
    vertex 21.91063752089471 74.41844934342603 7.111248390328694
    vertex 24.31063752070464 108.41844934432119 7.111248390295501
    vertex 21.91063752089471 76.71844934342603 7.111248390330638
  endloop
endfacet
facet normal -6.148690638655082e-11 -8.628551166919247e-11 1.0
  outer loop
    vertex 21.91063752089471 76.71844934342603 7.111248390330638
    vertex 24.31063752070464 108.41844934432119 7.111248390295501
    vertex 21.81063752089471 76.71844934342603 7.111248390329194
  endloop
endfacet
facet normal -6.148690638655082e-11 -8.628551166919247e-11 1.0
  outer loop
    vertex 21.81063752089471 76.71844934342603 7.111248390329194
    vertex 24.31063752070464 108.41844934432119 7.111248390295501
    vertex 20.310637521476018 76.71844934342603 7.111248390330638
  endloop
endfacet
facet normal -6.148690638655082e-11 -8.628551166919247e-11 1.0
  outer loop
    vertex 20.310637521476018 76.71844934342603 7.111248390330638
    vertex 24.31063752070464 108.41844934432119 7.111248390295501
    vertex 20.310637522003002 107.3184493444087 7.111248390356474
  endloop
endfacet
facet normal -6.148690638655082e-11 -8.628551166919247e-11 1.0
  outer loop
    vertex 20.310637522003002 107.3184493444087 7.111248390356474
    vertex 24.31063752070464 108.41844934432119 7.111248390295501
    vertex 20.310637522003002 107.41844934440871 7.1112483903565815
  endloop
endfacet
facet normal -6.148690638655082e-11 -8.628551166919247e-11 1.0
  outer loop
    vertex 20.310637522003002 107.41844934440871 7.1112483903565815
    vertex 24.31063752070464 108.41844934432119 7.111248390295501
    vertex -62.27943873379536 107.41844934440871 7.11124838422787
  endloop
endfacet
facet normal -6.148690638655082e-11 -8.628551166919247e-11 1.0
  outer loop
    vertex -62.27943873379536 107.41844934440871 7.11124838422787
    vertex 24.31063752070464 108.41844934432119 7.111248390295501
    vertex -66.27943873342309 108.41844934384511 7.1112483841281895
  endloop
endfacet
facet normal -6.148690638655082e-11 -8.628551166919247e-11 1.0
  outer loop
    vertex -66.27943873342309 108.41844934384511 7.1112483841281895
    vertex 24.31063752070464 108.41844934432119 7.111248390295501
    vertex -66.1772162122903 109.19490647915268 7.111248384176965
  endloop
endfacet
facet normal -6.148690638655082e-11 -8.628551166919247e-11 1.0
  outer loop
    vertex -66.1772162122903 109.19490647915268 7.111248384176965
    vertex 24.31063752070464 108.41844934432119 7.111248390295501
    vertex 24.208414999571826 109.19490647962877 7.111248390527349
  endloop
endfacet
facet normal -6.148690638655082e-11 -8.628551166919247e-11 1.0
  outer loop
    vertex -66.1772162122903 109.19490647915268 7.111248384176965
    vertex 24.208414999571826 109.19490647962877 7.111248390527349
    vertex -65.87751494477641 109.9184493438451 7.111248384258295
  endloop
endfacet
facet normal -6.148690638655082e-11 -8.628551166919247e-11 1.0
  outer loop
    vertex -65.87751494477641 109.9184493438451 7.111248384258295
    vertex 24.208414999571826 109.19490647962877 7.111248390527349
    vertex 23.908713732057944 109.91844934432119 7.111248390570102
  endloop
endfacet
facet normal -6.148690638655082e-11 -8.628551166919247e-11 1.0
  outer loop
    vertex -65.87751494477641 109.9184493438451 7.111248384258295
    vertex 23.908713732057944 109.91844934432119 7.111248390570102
    vertex -65.40075907698275 110.53976968740477 7.1112483843399446
  endloop
endfacet
facet normal -6.148690638655082e-11 -8.628551166919247e-11 1.0
  outer loop
    vertex -65.40075907698275 110.53976968740477 7.1112483843399446
    vertex 23.908713732057944 109.91844934432119 7.111248390570102
    vertex 23.43195786426427 110.53976968788082 7.1112483905941115
  endloop
endfacet
facet normal -6.148690638655082e-11 -8.628551166919247e-11 1.0
  outer loop
    vertex -65.40075907698275 110.53976968740477 7.1112483843399446
    vertex 23.43195786426427 110.53976968788082 7.1112483905941115
    vertex -64.77943873342309 111.01652555519841 7.111248384416374
  endloop
endfacet
facet normal -6.148690638655082e-11 -8.628551166919247e-11 1.0
  outer loop
    vertex -64.77943873342309 111.01652555519841 7.111248384416374
    vertex 23.43195786426427 110.53976968788082 7.1112483905941115
    vertex 22.810637520704617 111.01652555567452 7.111248390597786
  endloop
endfacet
facet normal -6.148690638655082e-11 -8.628551166919247e-11 1.0
  outer loop
    vertex -64.77943873342309 111.01652555519841 7.111248384416374
    vertex 22.810637520704617 111.01652555567452 7.111248390597786
    vertex -64.05589586873067 111.31622682271232 7.111248384482412
  endloop
endfacet
facet normal -6.148690638655082e-11 -8.628551166919247e-11 1.0
  outer loop
    vertex -64.05589586873067 111.31622682271232 7.111248384482412
    vertex 22.810637520704617 111.01652555567452 7.111248390597786
    vertex 22.0870946560122 111.3162268231884 7.111248390580849
  endloop
endfacet
facet normal -6.148690638655082e-11 -8.628551166919247e-11 1.0
  outer loop
    vertex -64.05589586873067 111.31622682271232 7.111248384482412
    vertex 22.0870946560122 111.3162268231884 7.111248390580849
    vertex -63.2794387334231 111.41844934384511 7.11124838426597
  endloop
endfacet
facet normal -6.148690638655082e-11 -8.628551166919247e-11 1.0
  outer loop
    vertex -63.2794387334231 111.41844934384511 7.11124838426597
    vertex 22.0870946560122 111.3162268231884 7.111248390580849
    vertex 21.31063752070462 111.41844934432119 7.1112483904168355
  endloop
endfacet
facet normal -6.148690638655082e-11 -8.628551166919247e-11 1.0
  outer loop
    vertex -62.279438733817166 73.4184493444087 7.111248384199136
    vertex -66.27943873342309 108.41844934384511 7.1112483841281895
    vertex -66.27943873381716 71.4184493444087 7.111248383947845
  endloop
endfacet
facet normal -6.148690638655082e-11 -8.628551166919247e-11 1.0
  outer loop
    vertex -66.27943873342309 108.41844934384511 7.1112483841281895
    vertex -62.279438733817166 73.4184493444087 7.111248384199136
    vertex -62.279438733817166 73.51844934440871 7.111248384199244
  endloop
endfacet
facet normal -6.148690638655082e-11 -8.628551166919247e-11 1.0
  outer loop
    vertex -66.27943873342309 108.41844934384511 7.1112483841281895
    vertex -62.279438733817166 73.51844934440871 7.111248384199244
    vertex -62.27943873379536 107.41844934440871 7.11124838422787
  endloop
endfacet
facet normal -6.148690638655082e-11 -8.628551166919247e-11 1.0
  outer loop
    vertex -62.27943873379536 107.41844934440871 7.11124838422787
    vertex -62.17943873379536 107.41844934440864 7.111248384235269
    vertex 20.310637522003002 107.41844934440871 7.1112483903565815
  endloop
endfacet
facet normal -6.148690638655082e-11 -8.628551166919247e-11 1.0
  outer loop
    vertex 21.91063752089471 74.41844934342603 7.111248390328694
    vertex 20.31063752182812 74.41844934342603 7.111248390282175
    vertex 20.31063752198121 73.51844934440871 7.111248390327956
  endloop
endfacet
facet normal -6.148690638655082e-11 -8.628551166919247e-11 1.0
  outer loop
    vertex 20.31063752182812 74.41844934342603 7.111248390282175
    vertex 21.91063752089471 74.41844934342603 7.111248390328694
    vertex 21.81063752089471 74.41844934342603 7.111248390327249
  endloop
endfacet
facet normal -8.903037041399508e-13 -1.0 -4.408950437949785e-12
  outer loop
    vertex 20.21063752182821 74.51844934341072 7.111248390275221
    vertex 20.310637521680025 74.51844934342377 9.111248390282617
    vertex 20.210637521680027 74.51844934340846 9.111248390275218
  endloop
endfacet
facet normal -8.903037041399508e-13 -1.0 -4.408950437949785e-12
  outer loop
    vertex 20.310637521680025 74.51844934342377 9.111248390282617
    vertex 20.21063752182821 74.51844934341072 7.111248390275221
    vertex 20.31063752182821 74.51844934342603 7.111248390282621
  endloop
endfacet
facet normal -8.903037041399508e-13 -1.0 -4.408950437949785e-12
  outer loop
    vertex 20.310637521680025 74.51844934342377 9.111248390282617
    vertex 20.31063752182821 74.51844934342603 7.111248390282621
    vertex 21.81063752086572 74.51844934340411 9.111248390316051
  endloop
endfacet
facet normal -8.903037041399508e-13 -1.0 -4.408950437949785e-12
  outer loop
    vertex 21.81063752086572 74.51844934340411 9.111248390316051
    vertex 20.31063752182821 74.51844934342603 7.111248390282621
    vertex 21.810637520894797 74.51844934342603 7.111248390327695
  endloop
endfacet
facet normal -3.0049562856729476e-11 -4.408950437923032e-12 1.0
  outer loop
    vertex 21.810637520894797 74.51844934342603 7.111248390327695
    vertex 20.31063752182812 74.41844934342603 7.111248390282175
    vertex 21.81063752089471 74.41844934342603 7.111248390327249
  endloop
endfacet
facet normal -3.0049562856729476e-11 -4.408950437923032e-12 1.0
  outer loop
    vertex 20.31063752182812 74.41844934342603 7.111248390282175
    vertex 21.810637520894797 74.51844934342603 7.111248390327695
    vertex 20.31063752182821 74.51844934342603 7.111248390282621
  endloop
endfacet
facet normal 7.409159024956232e-11 1.1343278799142262e-12 -1.0
  outer loop
    vertex -62.279438733672386 107.41844934458126 5.111248384227873
    vertex 20.310637522104184 73.41844934458129 5.111248390327852
    vertex -62.27943873369419 73.41844934458128 5.11124838419914
  endloop
endfacet
facet normal 7.409159024956232e-11 1.1343278799142262e-12 -1.0
  outer loop
    vertex 20.310637522104184 73.41844934458129 5.111248390327852
    vertex -62.279438733672386 107.41844934458126 5.111248384227873
    vertex 20.310637521951094 74.4184493435986 5.111248390282179
  endloop
endfacet
facet normal 7.409159024956232e-11 1.1343278799142262e-12 -1.0
  outer loop
    vertex 20.310637521951094 74.4184493435986 5.111248390282179
    vertex -62.279438733672386 107.41844934458126 5.111248384227873
    vertex 20.31063752159899 76.71844934359859 5.1112483903306405
  endloop
endfacet
facet normal 7.409159024956232e-11 1.1343278799142262e-12 -1.0
  outer loop
    vertex 20.31063752159899 76.71844934359859 5.1112483903306405
    vertex -62.279438733672386 107.41844934458126 5.111248384227873
    vertex 20.310637522125976 107.41844934458126 5.111248390356586
  endloop
endfacet
facet normal -0.7933533402912447 0.6087614290087081 3.746448820540016e-12
  outer loop
    vertex -65.40075907685977 110.53976968757732 5.111248384339948
    vertex -65.87751494477641 109.9184493438451 7.111248384258295
    vertex -65.40075907698275 110.53976968740477 7.1112483843399446
  endloop
endfacet
facet normal -0.7933533402912447 0.6087614290087081 3.746448820540016e-12
  outer loop
    vertex -65.87751494477641 109.9184493438451 7.111248384258295
    vertex -65.40075907685977 110.53976968757732 5.111248384339948
    vertex -65.87751494465344 109.91844934401767 5.111248384258299
  endloop
endfacet
facet normal -0.6087614290087172 0.7933533402912378 3.1024041904290525e-11
  outer loop
    vertex -64.77943873342309 111.01652555519841 7.111248384416374
    vertex -65.40075907685977 110.53976968757732 5.111248384339948
    vertex -65.40075907698275 110.53976968740477 7.1112483843399446
  endloop
endfacet
facet normal -0.6087614290087172 0.7933533402912378 3.1024041904290525e-11
  outer loop
    vertex -65.40075907685977 110.53976968757732 5.111248384339948
    vertex -64.77943873342309 111.01652555519841 7.111248384416374
    vertex -64.77943873330013 111.016525555371 5.111248384416378
  endloop
endfacet
facet normal -0.382683432365086 0.9238795325112885 5.6187397801914864e-11
  outer loop
    vertex -64.05589586873067 111.31622682271232 7.111248384482412
    vertex -64.77943873330013 111.016525555371 5.111248384416378
    vertex -64.77943873342309 111.01652555519841 7.111248384416374
  endloop
endfacet
facet normal -0.382683432365086 0.9238795325112885 5.6187397801914864e-11
  outer loop
    vertex -64.77943873330013 111.016525555371 5.111248384416378
    vertex -64.05589586873067 111.31622682271232 7.111248384482412
    vertex -64.05589586860769 111.31622682288489 5.1112483844824155
  endloop
endfacet
facet normal -0.13052619222005782 0.9914448613738096 7.75216753934031e-11
  outer loop
    vertex -63.2794387334231 111.41844934384511 7.11124838426597
    vertex -64.05589586860769 111.31622682288489 5.1112483844824155
    vertex -64.05589586873067 111.31622682271232 7.111248384482412
  endloop
endfacet
facet normal -0.13052619222005782 0.9914448613738096 7.75216753934031e-11
  outer loop
    vertex -64.05589586860769 111.31622682288489 5.1112483844824155
    vertex -63.2794387334231 111.41844934384511 7.11124838426597
    vertex -63.279438733300125 111.41844934401767 5.1112483842659735
  endloop
endfacet
facet normal 0.13052619222004183 0.9914448613738118 9.357297891745759e-11
  outer loop
    vertex 22.0870946560122 111.3162268231884 7.111248390580849
    vertex 21.310637520827594 111.41844934449375 5.111248390416839
    vertex 21.31063752070462 111.41844934432119 7.1112483904168355
  endloop
endfacet
facet normal 0.13052619222004183 0.9914448613738118 9.357297891745759e-11
  outer loop
    vertex 21.310637520827594 111.41844934449375 5.111248390416839
    vertex 22.0870946560122 111.3162268231884 7.111248390580849
    vertex 22.087094656135175 111.31622682336096 5.111248390580852
  endloop
endfacet
facet normal -5.6280599694100376e-12 1.0 8.628551166884641e-11
  outer loop
    vertex 21.31063752070462 111.41844934432119 7.1112483904168355
    vertex -63.279438733300125 111.41844934401767 5.1112483842659735
    vertex -63.2794387334231 111.41844934384511 7.11124838426597
  endloop
endfacet
facet normal -5.6280599694100376e-12 1.0 8.628551166884641e-11
  outer loop
    vertex -63.279438733300125 111.41844934401767 5.1112483842659735
    vertex 21.31063752070462 111.41844934432119 7.1112483904168355
    vertex 21.310637520827594 111.41844934449375 5.111248390416839
  endloop
endfacet
facet normal 0.3826834323651033 0.9238795325112812 1.0324743856494727e-10
  outer loop
    vertex 22.810637520704617 111.01652555567452 7.111248390597786
    vertex 22.087094656135175 111.31622682336096 5.111248390580852
    vertex 22.0870946560122 111.3162268231884 7.111248390580849
  endloop
endfacet
facet normal 0.3826834323651033 0.9238795325112812 1.0324743856494727e-10
  outer loop
    vertex 22.087094656135175 111.31622682336096 5.111248390580852
    vertex 22.810637520704617 111.01652555567452 7.111248390597786
    vertex 22.81063752082759 111.01652555584708 5.1112483905977895
  endloop
endfacet
facet normal 0.6087614290087172 0.7933533402912378 1.0588575589869431e-10
  outer loop
    vertex 23.43195786426427 110.53976968788082 7.1112483905941115
    vertex 22.81063752082759 111.01652555584708 5.1112483905977895
    vertex 22.810637520704617 111.01652555567452 7.111248390597786
  endloop
endfacet
facet normal 0.6087614290087172 0.7933533402912378 1.0588575589869431e-10
  outer loop
    vertex 22.81063752082759 111.01652555584708 5.1112483905977895
    vertex 23.43195786426427 110.53976968788082 7.1112483905941115
    vertex 23.431957864387243 110.5397696880534 5.111248390594115
  endloop
endfacet
facet normal 1.908574345763803e-22 -1.0 -8.628551166919246e-11
  outer loop
    vertex -66.27943873369418 71.41844934458128 5.111248383947849
    vertex 24.310637521981214 71.4184493444087 7.111248384150206
    vertex -66.27943873381716 71.4184493444087 7.111248383947845
  endloop
endfacet
facet normal 1.908574345763803e-22 -1.0 -8.628551166919246e-11
  outer loop
    vertex 24.310637521981214 71.4184493444087 7.111248384150206
    vertex -66.27943873369418 71.41844934458128 5.111248383947849
    vertex 24.310637522104187 71.41844934458128 5.11124838415021
  endloop
endfacet
facet normal -1.0 1.0650327467252282e-11 -6.148690638563184e-11
  outer loop
    vertex -66.27943873330013 108.41844934401767 5.111248384128192
    vertex -66.27943873381716 71.4184493444087 7.111248383947845
    vertex -66.27943873342309 108.41844934384511 7.1112483841281895
  endloop
endfacet
facet normal -1.0 1.0650327467252282e-11 -6.148690638563184e-11
  outer loop
    vertex -66.27943873381716 71.4184493444087 7.111248383947845
    vertex -66.27943873330013 108.41844934401767 5.111248384128192
    vertex -66.27943873369418 71.41844934458128 5.111248383947849
  endloop
endfacet
facet normal -0.9914448613738116 0.1305261922200437 -4.969835809678057e-11
  outer loop
    vertex -66.17721621216734 109.19490647932524 5.111248384176968
    vertex -66.27943873342309 108.41844934384511 7.1112483841281895
    vertex -66.1772162122903 109.19490647915268 7.111248384176965
  endloop
endfacet
facet normal -0.9914448613738116 0.1305261922200437 -4.969835809678057e-11
  outer loop
    vertex -66.27943873342309 108.41844934384511 7.1112483841281895
    vertex -66.17721621216734 109.19490647932524 5.111248384176968
    vertex -66.27943873330013 108.41844934401767 5.111248384128192
  endloop
endfacet
facet normal -0.9238795325112833 0.38268343236509816 -2.3786458559026294e-11
  outer loop
    vertex -65.87751494465344 109.91844934401767 5.111248384258299
    vertex -66.1772162122903 109.19490647915268 7.111248384176965
    vertex -65.87751494477641 109.9184493438451 7.111248384258295
  endloop
endfacet
facet normal -0.9238795325112833 0.38268343236509816 -2.3786458559026294e-11
  outer loop
    vertex -66.1772162122903 109.19490647915268 7.111248384176965
    vertex -65.87751494465344 109.91844934401767 5.111248384258299
    vertex -66.17721621216734 109.19490647932524 5.111248384176968
  endloop
endfacet
facet normal 6.148690638655082e-11 8.628551166919244e-11 -1.0
  outer loop
    vertex 20.310637522125976 107.41844934458126 5.111248390356586
    vertex 21.91063752101768 76.71844934359859 5.1112483903306405
    vertex 20.31063752159899 76.71844934359859 5.1112483903306405
  endloop
endfacet
facet normal 6.148690638655082e-11 8.628551166919244e-11 -1.0
  outer loop
    vertex -66.27943873369418 71.41844934458128 5.111248383947849
    vertex -62.27943873369419 73.41844934458128 5.11124838419914
    vertex 24.310637522104187 71.41844934458128 5.11124838415021
  endloop
endfacet
facet normal 6.148690638655082e-11 8.628551166919244e-11 -1.0
  outer loop
    vertex -62.27943873369419 73.41844934458128 5.11124838419914
    vertex -66.27943873369418 71.41844934458128 5.111248383947849
    vertex -66.27943873330013 108.41844934401767 5.111248384128192
  endloop
endfacet
facet normal 6.148690638655082e-11 8.628551166919244e-11 -1.0
  outer loop
    vertex -62.27943873369419 73.41844934458128 5.11124838419914
    vertex -66.27943873330013 108.41844934401767 5.111248384128192
    vertex -62.279438733672386 107.41844934458126 5.111248384227873
  endloop
endfacet
facet normal 6.148690638655082e-11 8.628551166919244e-11 -1.0
  outer loop
    vertex -62.279438733672386 107.41844934458126 5.111248384227873
    vertex -66.27943873330013 108.41844934401767 5.111248384128192
    vertex 20.310637522125976 107.41844934458126 5.111248390356586
  endloop
endfacet
facet normal 6.148690638655082e-11 8.628551166919244e-11 -1.0
  outer loop
    vertex 24.310637522104187 71.41844934458128 5.11124838415021
    vertex 21.91063752101768 74.4184493435986 5.111248390328697
    vertex 24.310637520827612 108.41844934449375 5.111248390295504
  endloop
endfacet
facet normal 6.148690638655082e-11 8.628551166919244e-11 -1.0
  outer loop
    vertex 21.91063752101768 74.4184493435986 5.111248390328697
    vertex 24.310637522104187 71.41844934458128 5.11124838415021
    vertex 20.310637522104184 73.41844934458129 5.111248390327852
  endloop
endfacet
facet normal 6.148690638655082e-11 8.628551166919244e-11 -1.0
  outer loop
    vertex 20.310637522104184 73.41844934458129 5.111248390327852
    vertex 24.310637522104187 71.41844934458128 5.11124838415021
    vertex -62.27943873369419 73.41844934458128 5.11124838419914
  endloop
endfacet
facet normal 6.148690638655082e-11 8.628551166919244e-11 -1.0
  outer loop
    vertex 21.91063752101768 74.4184493435986 5.111248390328697
    vertex 20.310637522104184 73.41844934458129 5.111248390327852
    vertex 20.310637521951094 74.4184493435986 5.111248390282179
  endloop
endfacet
facet normal 6.148690638655082e-11 8.628551166919244e-11 -1.0
  outer loop
    vertex 24.310637520827612 108.41844934449375 5.111248390295504
    vertex 21.91063752101768 74.4184493435986 5.111248390328697
    vertex 21.91063752101768 76.71844934359859 5.1112483903306405
  endloop
endfacet
facet normal 6.148690638655082e-11 8.628551166919244e-11 -1.0
  outer loop
    vertex 24.310637520827612 108.41844934449375 5.111248390295504
    vertex 21.91063752101768 76.71844934359859 5.1112483903306405
    vertex 20.310637522125976 107.41844934458126 5.111248390356586
  endloop
endfacet
facet normal 6.148690638655082e-11 8.628551166919244e-11 -1.0
  outer loop
    vertex 24.310637520827612 108.41844934449375 5.111248390295504
    vertex 20.310637522125976 107.41844934458126 5.111248390356586
    vertex -66.27943873330013 108.41844934401767 5.111248384128192
  endloop
endfacet
facet normal 6.148690638655082e-11 8.628551166919244e-11 -1.0
  outer loop
    vertex 24.310637520827612 108.41844934449375 5.111248390295504
    vertex -66.27943873330013 108.41844934401767 5.111248384128192
    vertex -66.17721621216734 109.19490647932524 5.111248384176968
  endloop
endfacet
facet normal 6.148690638655082e-11 8.628551166919244e-11 -1.0
  outer loop
    vertex 24.310637520827612 108.41844934449375 5.111248390295504
    vertex -66.17721621216734 109.19490647932524 5.111248384176968
    vertex 24.2084149996948 109.19490647980133 5.1112483905273525
  endloop
endfacet
facet normal 6.148690638655082e-11 8.628551166919244e-11 -1.0
  outer loop
    vertex 24.2084149996948 109.19490647980133 5.1112483905273525
    vertex -66.17721621216734 109.19490647932524 5.111248384176968
    vertex -65.87751494465344 109.91844934401767 5.111248384258299
  endloop
endfacet
facet normal 6.148690638655082e-11 8.628551166919244e-11 -1.0
  outer loop
    vertex 24.2084149996948 109.19490647980133 5.1112483905273525
    vertex -65.87751494465344 109.91844934401767 5.111248384258299
    vertex 23.908713732180917 109.91844934449375 5.111248390570105
  endloop
endfacet
facet normal 6.148690638655082e-11 8.628551166919244e-11 -1.0
  outer loop
    vertex 23.908713732180917 109.91844934449375 5.111248390570105
    vertex -65.87751494465344 109.91844934401767 5.111248384258299
    vertex -65.40075907685977 110.53976968757732 5.111248384339948
  endloop
endfacet
facet normal 6.148690638655082e-11 8.628551166919244e-11 -1.0
  outer loop
    vertex 23.908713732180917 109.91844934449375 5.111248390570105
    vertex -65.40075907685977 110.53976968757732 5.111248384339948
    vertex 23.431957864387243 110.5397696880534 5.111248390594115
  endloop
endfacet
facet normal 6.148690638655082e-11 8.628551166919244e-11 -1.0
  outer loop
    vertex 23.431957864387243 110.5397696880534 5.111248390594115
    vertex -65.40075907685977 110.53976968757732 5.111248384339948
    vertex -64.77943873330013 111.016525555371 5.111248384416378
  endloop
endfacet
facet normal 6.148690638655082e-11 8.628551166919244e-11 -1.0
  outer loop
    vertex 23.431957864387243 110.5397696880534 5.111248390594115
    vertex -64.77943873330013 111.016525555371 5.111248384416378
    vertex 22.81063752082759 111.01652555584708 5.1112483905977895
  endloop
endfacet
facet normal 6.148690638655082e-11 8.628551166919244e-11 -1.0
  outer loop
    vertex 22.81063752082759 111.01652555584708 5.1112483905977895
    vertex -64.77943873330013 111.016525555371 5.111248384416378
    vertex -64.05589586860769 111.31622682288489 5.1112483844824155
  endloop
endfacet
facet normal 6.148690638655082e-11 8.628551166919244e-11 -1.0
  outer loop
    vertex 22.81063752082759 111.01652555584708 5.1112483905977895
    vertex -64.05589586860769 111.31622682288489 5.1112483844824155
    vertex 22.087094656135175 111.31622682336096 5.111248390580852
  endloop
endfacet
facet normal 6.148690638655082e-11 8.628551166919244e-11 -1.0
  outer loop
    vertex 22.087094656135175 111.31622682336096 5.111248390580852
    vertex -64.05589586860769 111.31622682288489 5.1112483844824155
    vertex -63.279438733300125 111.41844934401767 5.1112483842659735
  endloop
endfacet
facet normal 6.148690638655082e-11 8.628551166919244e-11 -1.0
  outer loop
    vertex 22.087094656135175 111.31622682336096 5.111248390580852
    vertex -63.279438733300125 111.41844934401767 5.1112483842659735
    vertex 21.310637520827594 111.41844934449375 5.111248390416839
  endloop
endfacet
facet normal 0.9238795325112885 0.382683432365086 8.982653009691617e-11
  outer loop
    vertex 24.208414999571826 109.19490647962877 7.111248390527349
    vertex 23.908713732180917 109.91844934449375 5.111248390570105
    vertex 23.908713732057944 109.91844934432119 7.111248390570102
  endloop
endfacet
facet normal 0.9238795325112885 0.382683432365086 8.982653009691617e-11
  outer loop
    vertex 23.908713732180917 109.91844934449375 5.111248390570105
    vertex 24.208414999571826 109.19490647962877 7.111248390527349
    vertex 24.2084149996948 109.19490647980133 5.1112483905273525
  endloop
endfacet
facet normal 1.0 3.450206125791181e-11 6.148690638952783e-11
  outer loop
    vertex 24.310637521981214 71.4184493444087 7.111248384150206
    vertex 24.310637520827612 108.41844934449375 5.111248390295504
    vertex 24.31063752070464 108.41844934432119 7.111248390295501
  endloop
endfacet
facet normal 1.0 3.450206125791181e-11 6.148690638952783e-11
  outer loop
    vertex 24.310637520827612 108.41844934449375 5.111248390295504
    vertex 24.310637521981214 71.4184493444087 7.111248384150206
    vertex 24.310637522104187 71.41844934458128 5.11124838415021
  endloop
endfacet
facet normal 0.7933533402912326 0.6087614290087243 1.0130813395243096e-10
  outer loop
    vertex 23.908713732057944 109.91844934432119 7.111248390570102
    vertex 23.431957864387243 110.5397696880534 5.111248390594115
    vertex 23.43195786426427 110.53976968788082 7.1112483905941115
  endloop
endfacet
facet normal 0.7933533402912326 0.6087614290087243 1.0130813395243096e-10
  outer loop
    vertex 23.431957864387243 110.5397696880534 5.111248390594115
    vertex 23.908713732057944 109.91844934432119 7.111248390570102
    vertex 23.908713732180917 109.91844934449375 5.111248390570105
  endloop
endfacet
facet normal 0.9914448613738077 0.13052619222007197 7.222339666065845e-11
  outer loop
    vertex 24.31063752070464 108.41844934432119 7.111248390295501
    vertex 24.2084149996948 109.19490647980133 5.1112483905273525
    vertex 24.208414999571826 109.19490647962877 7.111248390527349
  endloop
endfacet
facet normal 0.9914448613738077 0.13052619222007197 7.222339666065845e-11
  outer loop
    vertex 24.2084149996948 109.19490647980133 5.1112483905273525
    vertex 24.31063752070464 108.41844934432119 7.111248390295501
    vertex 24.310637520827612 108.41844934449375 5.111248390295504
  endloop
endfacet
endsolid Untitled
